<svg xmlns="http://www.w3.org/2000/svg" version="1.1" xmlnsXlink="http://www.w3.org/1999/xlink" xmlnsSvgjs="http://svgjs.dev/svgjs" width="2000" height="2000" viewBox="0 0 2000 2000"><g transform="matrix(1,0,0,1,0,0.000029587111498585728)"><svg viewBox="0 0 280 280" data-background-color="#ffffff" preserveAspectRatio="xMidYMid meet" height="2000" width="2000" xmlns="http://www.w3.org/2000/svg" xmlnsXlink="http://www.w3.org/1999/xlink"><g id="tight-bounds" transform="matrix(1,0,0,1,0,0.000004142195649592395)"><svg viewBox="0 0 280 280" height="280" width="280"><g><svg viewBox="0 0 280 280" height="280" width="280"><g><svg viewBox="0 0 280 280" height="280" width="280"><g id="textblocktransform"><svg viewBox="0 0 280 280" height="280" width="280" id="textblock"><g><svg viewBox="0 0 280 280" height="280" width="280"><g transform="matrix(1,0,0,1,90.50252531694167,90.50252531694167)"><svg viewBox="0 0 98.99494936611666 98.99494936611666" height="98.99494936611666" width="98.99494936611666"><g id="icon-0"><circle r="49" cx="49.49747468305833" cy="49.49747468305833" fill="#e9de2c" data-fill-palette-color="accent"></circle></g></svg></g><g id="text-0"><path d="M3.133 106.442l-0.677-0.213 2.896-9.213 27.525 8.652 0.662-2.106 0.677 0.213-3.511 11.168-0.677-0.213 0.651-2.068-26.849-8.439z" fill="#067627" data-fill-palette-color="primary"></path><path d="M44.311 70.282v0l-2.723-1.952c-2.071-1.485-3.663-2.457-4.773-2.914-1.111-0.457-1.958-0.28-2.54 0.531v0c-0.337 0.47-0.475 0.945-0.415 1.425 0.06 0.48 0.354 1.006 0.882 1.578v0c0.823 0.881 2.217 2.026 4.181 3.435v0l2.499 1.791c2.328 1.669 3.776 2.603 4.346 2.801 0.569 0.198 1.057 0.33 1.463 0.394v0c0.681 0.133 1.266-0.143 1.756-0.826v0c0.597-0.833 0.507-1.722-0.27-2.667v0c-0.546-0.682-2.014-1.881-4.406-3.596zM49.518 77.022c-1.914 2.669-4.044 4.197-6.391 4.585-2.347 0.387-4.796-0.335-7.348-2.165-2.552-1.83-3.992-3.97-4.321-6.42-0.329-2.45 0.457-5 2.355-7.648 1.899-2.648 3.95-4.168 6.156-4.56 2.205-0.392 4.61 0.347 7.215 2.215v0c5.446 3.905 6.224 8.569 2.334 13.993z" fill="#067627" data-fill-palette-color="primary"></path><path d="M68.754 32.918v0c-0.954 0.653-1.281 1.641-0.981 2.964 0.3 1.323 1.273 3.188 2.92 5.596v0l1.157 1.691c1.469 2.147 2.761 3.524 3.876 4.131 1.115 0.606 2.312 0.472 3.592-0.404 1.28-0.875 2.002-2.006 2.168-3.393 0.166-1.387-0.021-2.707-0.561-3.962v0l0.63-0.336c0.864 2.147 1.025 4.011 0.482 5.592v0c-0.549 1.617-1.811 3.101-3.784 4.451v0c-2.516 1.721-4.91 2.364-7.182 1.928-2.272-0.436-4.302-1.96-6.09-4.574-1.788-2.614-2.399-5.148-1.834-7.604 0.565-2.456 2.214-4.618 4.946-6.487v0c1.93-1.32 3.661-1.955 5.192-1.904 1.531 0.051 2.683 0.64 3.454 1.768 0.771 1.128 1.091 2.119 0.96 2.973-0.132 0.854-0.626 1.575-1.483 2.161-0.857 0.586-1.701 0.829-2.533 0.73-0.832-0.099-1.552-0.594-2.161-1.483v0c-0.267-0.39-0.48-0.818-0.638-1.283v0l1.073-0.734c-0.145-0.538-0.336-0.98-0.573-1.327v0c-0.712-1.041-1.589-1.206-2.63-0.494z" fill="#067627" data-fill-palette-color="primary"></path><path d="M110.617 24.395v0l1.107-0.283-0.75-2.941c-0.617-2.419-1.165-4.008-1.644-4.767-0.479-0.759-1.1-1.041-1.864-0.846v0c-0.458 0.117-0.841 0.344-1.148 0.679-0.307 0.336-0.408 0.714-0.301 1.135 0.107 0.42 0.292 0.827 0.556 1.22v0l0.955-0.243c0.34 0.483 0.606 1.1 0.798 1.851 0.192 0.751 0.039 1.482-0.458 2.191-0.497 0.71-1.229 1.188-2.197 1.435v0c-2.19 0.559-3.554-0.218-4.093-2.331v0c-0.799-3.132 1.462-5.377 6.783-6.735v0c3.03-0.773 5.256-0.792 6.677-0.057 1.422 0.735 2.483 2.478 3.186 5.228v0l1.979 7.753c0.338 1.324 0.876 1.892 1.614 1.703v0c0.866-0.221 1.04-1.662 0.524-4.324v0l0.582-0.108c0.47 2.267 0.443 3.914-0.08 4.943-0.524 1.029-1.626 1.758-3.307 2.187v0c-3.055 0.78-5.053 0.286-5.992-1.481v0c-0.084 1.052-0.399 1.892-0.944 2.519-0.545 0.627-1.454 1.103-2.727 1.428v0c-3.768 0.962-6.046-0.098-6.832-3.178v0c-0.461-1.808-0.059-3.233 1.208-4.275 1.266-1.042 3.389-1.943 6.368-2.703zM110.288 29.482c0.338 1.324 0.626 2.159 0.863 2.505 0.238 0.346 0.554 0.469 0.949 0.369 0.395-0.101 0.681-0.52 0.859-1.257 0.178-0.737 0.121-1.678-0.172-2.824v0l-0.907-3.552-0.267 0.068c-1.579 0.403-2.072 1.763-1.481 4.08v0z" fill="#067627" data-fill-palette-color="primary"></path><path d="M159.113 0.778v0c-0.994-0.097-1.684 0.212-2.071 0.926-0.387 0.715-0.66 1.896-0.821 3.544v0l-0.613 6.276 5.179 0.506-0.069 0.706-5.179-0.505-1.685 17.261 4.786 0.467-0.069 0.706-14.241-1.39 0.069-0.706 2.158 0.21 1.685-17.261-2.275-0.222 0.069-0.706 2.275 0.222 0.016-0.157c0.368-3.766 1.366-6.553 2.994-8.361 1.629-1.808 4.13-2.547 7.504-2.218v0c2.223 0.217 3.776 0.811 4.658 1.782 0.882 0.971 1.267 2.031 1.154 3.182-0.112 1.151-0.497 1.984-1.155 2.501-0.658 0.517-1.483 0.726-2.477 0.629-0.994-0.097-1.734-0.427-2.22-0.989-0.486-0.562-0.697-1.177-0.632-1.844 0.065-0.667 0.207-1.307 0.425-1.919v0l1.491 0.146c0.697-1.727 0.378-2.656-0.956-2.786z" fill="#067627" data-fill-palette-color="primary"></path><path d="M190.743 30.543v0l1.047 0.458 1.216-2.781c1-2.287 1.545-3.877 1.635-4.77 0.089-0.893-0.227-1.497-0.949-1.814v0c-0.433-0.19-0.875-0.246-1.324-0.17-0.449 0.076-0.761 0.313-0.934 0.71-0.174 0.397-0.278 0.832-0.313 1.304v0l0.903 0.395c-0.029 0.59-0.198 1.24-0.509 1.95-0.311 0.71-0.88 1.193-1.708 1.447-0.828 0.254-1.7 0.181-2.615-0.218v0c-2.07-0.906-2.669-2.358-1.794-4.356v0c1.295-2.961 4.459-3.341 9.49-1.141v0c2.865 1.253 4.632 2.607 5.301 4.061 0.669 1.454 0.435 3.481-0.702 6.082v0l-3.207 7.331c-0.548 1.252-0.472 2.031 0.226 2.336v0c0.819 0.358 1.842-0.671 3.071-3.088v0l0.526 0.273c-1.023 2.077-2.057 3.359-3.103 3.848-1.046 0.489-2.363 0.386-3.952-0.309v0c-2.889-1.264-4.161-2.881-3.814-4.852v0c-0.713 0.778-1.477 1.247-2.293 1.406-0.816 0.16-1.825-0.024-3.029-0.55v0c-3.563-1.559-4.708-3.794-3.434-6.707v0c0.748-1.709 1.941-2.586 3.581-2.629 1.639-0.043 3.867 0.551 6.684 1.784zM187.355 34.353c-0.548 1.252-0.834 2.087-0.859 2.506-0.026 0.419 0.148 0.71 0.521 0.873 0.373 0.163 0.857 0.009 1.45-0.462 0.594-0.472 1.127-1.249 1.601-2.333v0l1.469-3.359-0.252-0.11c-1.493-0.653-2.718 0.116-3.677 2.307v0z" fill="#067627" data-fill-palette-color="primary"></path><path d="M236.026 51.438v0c-0.702-0.672-1.755-0.807-3.159-0.405-1.404 0.402-2.705 1.23-3.905 2.483v0l-7.305 7.631 2.022 1.935-0.491 0.513-8.883-8.504 0.49-0.513 1.566 1.499 11.993-12.528-1.566-1.499 0.491-0.513 6.862 6.569-2.617 2.734c1.173-0.732 2.361-1.023 3.564-0.873 1.202 0.15 2.249 0.653 3.141 1.507 0.892 0.854 1.377 1.801 1.456 2.84 0.078 1.039-0.323 2.019-1.204 2.939-0.881 0.921-1.767 1.428-2.657 1.522-0.89 0.094-1.767-0.273-2.631-1.1-0.864-0.827-1.227-1.72-1.09-2.68 0.137-0.96 0.839-1.798 2.106-2.513v0l1.025 0.981c1.401-0.514 1.665-1.189 0.792-2.025z" fill="#067627" data-fill-palette-color="primary"></path><path d="M256.255 76.964l0.653-0.279 3.728 8.738-3.336 1.423c2.806-0.254 4.788 0.978 5.949 3.697 1.16 2.719 0.559 4.926-1.804 6.619v0c2.971-0.268 5.034 0.952 6.189 3.659v0c1.516 3.553 0.256 6.191-3.78 7.913v0l-10.913 4.656 0.866 2.03-0.652 0.278-4.285-10.042 0.652-0.279 0.542 1.269 11.783-5.027c1.837-0.784 2.845-1.4 3.025-1.848v0c0.083-0.207 0.073-0.431-0.03-0.673v0c-0.299-0.701-1.033-1.116-2.203-1.245-1.169-0.13-2.479 0.115-3.929 0.733v0l-10.224 4.362 0.557 1.305-0.653 0.279-3.975-9.318 0.653-0.278 0.541 1.269 11.783-5.027c1.837-0.784 2.845-1.4 3.025-1.848v0c0.083-0.207 0.073-0.431-0.03-0.673v0c-0.289-0.677-1.063-1.068-2.322-1.174-1.259-0.106-2.602 0.146-4.028 0.755v0l-10.006 4.269 0.557 1.305-0.653 0.279-4.284-10.043 0.652-0.278 0.851 1.994 15.952-6.806z" fill="#067627" data-fill-palette-color="primary"></path><path d="M42.196 170.783l0.751-0.24 3.248 10.155-30.345 9.704 0.741 2.318-0.751 0.24-3.937-12.314 0.75-0.24 0.73 2.281 29.594-9.464z" fill="#067627" data-fill-palette-color="primary"></path><path d="M41.732 221.399v0l3.013-2.156c2.287-1.636 3.868-2.953 4.745-3.953 0.868-1 0.98-1.949 0.338-2.846v0c-0.371-0.518-0.818-0.833-1.341-0.943-0.519-0.105-1.173 0.015-1.959 0.36v0c-1.212 0.552-2.903 1.604-5.072 3.156v0l-2.765 1.978c-2.57 1.839-4.063 3.02-4.48 3.544-0.407 0.526-0.717 0.99-0.93 1.393v0c-0.379 0.667-0.299 1.377 0.239 2.13v0c0.657 0.919 1.619 1.14 2.885 0.663v0c0.906-0.325 2.682-1.434 5.327-3.326zM32.836 224.443c-2.11-2.949-2.95-5.721-2.52-8.314 0.429-2.585 2.054-4.886 4.875-6.905 2.821-2.018 5.57-2.765 8.247-2.241 2.681 0.529 5.067 2.256 7.158 5.178 2.095 2.928 2.955 5.616 2.582 8.064-0.377 2.443-2.005 4.694-4.885 6.754v0c-6.016 4.304-11.168 3.459-15.457-2.536z" fill="#067627" data-fill-palette-color="primary"></path><path d="M79.414 240.773v0c-1.049-0.724-2.196-0.669-3.441 0.164-1.245 0.833-2.781 2.575-4.609 5.225v0l-1.287 1.866c-1.63 2.363-2.537 4.24-2.721 5.628-0.184 1.389 0.43 2.571 1.841 3.545 1.406 0.97 2.858 1.265 4.357 0.886 1.495-0.374 2.782-1.09 3.863-2.148v0l0.591 0.515c-1.872 1.742-3.729 2.647-5.573 2.717v0c-1.885 0.072-3.915-0.641-6.089-2.141v0c-2.769-1.91-4.379-4.122-4.831-6.636-0.452-2.515 0.314-5.21 2.297-8.088 1.988-2.882 4.361-4.518 7.119-4.906 2.752-0.392 5.635 0.451 8.647 2.528v0c2.125 1.466 3.462 2.998 4.011 4.598 0.558 1.598 0.408 3.019-0.45 4.262-0.854 1.238-1.747 1.96-2.677 2.164-0.936 0.2-1.875-0.024-2.816-0.673-0.946-0.653-1.535-1.426-1.765-2.318-0.226-0.898-0.002-1.837 0.673-2.816v0c0.298-0.433 0.654-0.822 1.068-1.167v0l1.185 0.817c0.5-0.366 0.88-0.738 1.141-1.116v0c0.791-1.146 0.613-2.115-0.534-2.906z" fill="#067627" data-fill-palette-color="primary"></path><path d="M109.746 265.117v0l1.22 0.32 0.85-3.241c0.7-2.669 1.023-4.496 0.968-5.481-0.052-0.992-0.501-1.598-1.346-1.82v0c-0.502-0.132-0.991-0.117-1.468 0.043-0.477 0.16-0.776 0.472-0.898 0.936-0.122 0.464-0.162 0.956-0.122 1.476v0l1.049 0.275c0.074 0.651 0.002 1.389-0.214 2.215-0.217 0.826-0.757 1.449-1.621 1.868-0.857 0.42-1.82 0.491-2.887 0.211v0c-2.415-0.633-3.317-2.112-2.708-4.439v0c0.906-3.457 4.292-4.417 10.158-2.879v0c3.343 0.876 5.503 2.051 6.482 3.523 0.979 1.472 1.071 3.724 0.277 6.756v0l-2.242 8.55c-0.382 1.455-0.166 2.289 0.648 2.503v0c0.953 0.25 1.894-1.045 2.822-3.886v0l0.619 0.203c-0.762 2.442-1.671 4.017-2.726 4.726-1.057 0.715-2.51 0.829-4.359 0.344v0c-3.368-0.883-5.034-2.43-4.997-4.641v0c-0.642 0.973-1.395 1.617-2.259 1.934-0.862 0.31-1.996 0.282-3.401-0.087v0c-4.156-1.09-5.789-3.331-4.899-6.724v0c0.523-1.995 1.676-3.157 3.46-3.484 1.777-0.329 4.309-0.062 7.594 0.799zM106.711 269.853c-0.383 1.462-0.553 2.422-0.511 2.882 0.043 0.459 0.283 0.747 0.722 0.861 0.432 0.113 0.932-0.136 1.5-0.747 0.563-0.62 1.011-1.562 1.342-2.827v0l1.025-3.908-0.296-0.077c-1.735-0.455-2.937 0.595-3.607 3.149v0z" fill="#067627" data-fill-palette-color="primary"></path><path d="M154.34 246.065v0c-1.099 0.097-1.786 0.573-2.061 1.429-0.275 0.849-0.332 2.186-0.17 4.011v0l0.611 6.93 5.722-0.504 0.07 0.785-5.723 0.505 1.681 19.072 5.291-0.466 0.069 0.785-15.745 1.388-0.069-0.785 2.385-0.211-1.681-19.072-2.513 0.221-0.069-0.785 2.513-0.221-0.015-0.167c-0.367-4.162 0.15-7.39 1.55-9.683 1.4-2.293 3.966-3.604 7.696-3.933v0c2.454-0.216 4.26 0.112 5.419 0.986 1.151 0.868 1.783 1.94 1.896 3.216 0.112 1.27-0.135 2.251-0.74 2.944-0.611 0.7-1.466 1.099-2.565 1.196-1.099 0.097-1.969-0.113-2.608-0.631-0.645-0.51-1-1.132-1.064-1.865-0.065-0.739-0.04-1.464 0.075-2.173v0l1.639-0.144c0.409-2.015-0.122-2.957-1.594-2.827z" fill="#067627" data-fill-palette-color="primary"></path><path d="M188.955 259.962v0l1.163-0.487-1.294-3.09c-1.066-2.545-1.919-4.192-2.561-4.943-0.644-0.756-1.369-0.965-2.175-0.627v0c-0.479 0.2-0.859 0.509-1.14 0.926-0.281 0.417-0.329 0.847-0.144 1.289 0.185 0.442 0.452 0.858 0.8 1.246v0l1-0.419c0.454 0.472 0.846 1.102 1.176 1.89 0.33 0.788 0.279 1.61-0.153 2.468-0.425 0.855-1.147 1.495-2.165 1.922v0c-2.303 0.964-3.918 0.337-4.847-1.881v0c-1.38-3.296 0.726-6.116 6.319-8.458v0c3.187-1.335 5.617-1.715 7.289-1.14 1.672 0.575 3.113 2.307 4.324 5.198v0l3.414 8.153c0.581 1.388 1.259 1.919 2.035 1.594v0c0.909-0.381 0.869-1.981-0.119-4.8v0l0.615-0.215c0.878 2.403 1.113 4.206 0.706 5.41-0.405 1.21-1.489 2.183-3.253 2.921v0c-3.212 1.345-5.475 1.128-6.789-0.65v0c0.081 1.163-0.126 2.132-0.62 2.909-0.496 0.771-1.414 1.436-2.753 1.997v0c-3.963 1.66-6.622 0.871-7.977-2.365v0c-0.797-1.903-0.586-3.526 0.632-4.869 1.212-1.341 3.384-2.667 6.517-3.979zM189.422 265.568c0.584 1.394 1.032 2.26 1.345 2.599 0.313 0.339 0.678 0.421 1.096 0.246 0.412-0.173 0.658-0.674 0.737-1.505 0.071-0.834-0.146-1.855-0.651-3.061v0l-1.56-3.727-0.282 0.118c-1.654 0.693-1.971 2.257-0.951 4.693v0z" fill="#067627" data-fill-palette-color="primary"></path><path d="M222.763 226.704v0c-0.787 0.726-1.007 1.877-0.661 3.454 0.351 1.571 1.177 3.062 2.477 4.471v0l7.906 8.567 2.267-2.091 0.534 0.579-9.979 9.209-0.534-0.579 1.759-1.624-12.985-14.071-1.759 1.624-0.535-0.579 7.712-7.118 2.834 3.071c-0.727-1.34-0.965-2.668-0.712-3.983 0.243-1.315 0.867-2.436 1.871-3.362 0.999-0.922 2.076-1.393 3.23-1.412 1.149-0.014 2.202 0.497 3.16 1.535 0.953 1.033 1.452 2.043 1.497 3.031 0.039 0.992-0.426 1.935-1.397 2.831-0.966 0.891-1.974 1.227-3.025 1.009-1.047-0.214-1.925-1.044-2.634-2.491v0l1.151-1.063c-0.467-1.581-1.192-1.917-2.177-1.008z" fill="#067627" data-fill-palette-color="primary"></path><path d="M237.602 208.426l-0.72-0.321 4.265-9.589 3.665 1.63c-2.32-2.075-2.816-4.603-1.49-7.586 1.327-2.983 3.564-4.156 6.71-3.519v0c-2.449-2.204-3.013-4.792-1.691-7.763v0c1.733-3.896 4.814-4.858 9.244-2.887v0l11.965 5.323 0.99-2.224 0.72 0.32-4.898 11.011-0.721-0.32 0.617-1.387-12.92-5.747c-2.017-0.897-3.272-1.251-3.767-1.061v0c-0.234 0.09-0.41 0.267-0.527 0.532v0c-0.342 0.768-0.123 1.675 0.656 2.718 0.773 1.041 1.955 1.916 3.546 2.624v0l11.21 4.986 0.637-1.431 0.72 0.32-4.546 10.219-0.72-0.32 0.617-1.387-12.92-5.747c-2.017-0.897-3.272-1.251-3.767-1.061v0c-0.234 0.09-0.41 0.267-0.528 0.531v0c-0.331 0.744-0.065 1.665 0.8 2.761 0.864 1.096 2.076 1.991 3.637 2.685v0l10.975 4.883 0.637-1.432 0.72 0.32-4.902 11.021-0.72-0.321 0.973-2.187-17.494-7.782z" fill="#067627" data-fill-palette-color="primary"></path><path d="M5.937 144.792c0-6.428 5.211-11.639 11.639-11.639 6.428 0 11.639 5.211 11.639 11.639 0 6.428-5.211 11.639-11.639 11.639-6.428 0-11.639-5.211-11.639-11.639z" fill="#067627" data-fill-palette-color="primary"></path><path d="M254.266 144.792c0-6.428 5.211-11.639 11.639-11.639 6.428 0 11.639 5.211 11.639 11.639 0 6.428-5.211 11.639-11.639 11.639-6.428 0-11.639-5.211-11.639-11.639z" fill="#067627" data-fill-palette-color="primary"></path></g><g id="text-1"></g></svg></g></svg></g></svg></g></svg></g><defs></defs></svg><rect width="280" height="280" fill="none" stroke="none" visibility="hidden"></rect></g></svg></g></svg>